<svg id="Capa_1" data-name="Capa 1" xmlns="http://www.w3.org/2000/svg" viewBox="0 0 159.72 90.29"><circle cx="10.62" cy="20.04" r="4.39" style="fill:#fff;stroke:#1d1d1b;stroke-miterlimit:10"/><circle cx="10.62" cy="37.36" r="4.39" style="fill:#fff;stroke:#1d1d1b;stroke-miterlimit:10"/><circle cx="10.62" cy="65.59" r="4.39" style="fill:#fff;stroke:#1d1d1b;stroke-miterlimit:10"/><line x1="15.01" y1="20.04" x2="44.64" y2="20.04" style="fill:none;stroke:#1d1d1b;stroke-miterlimit:10"/><line x1="15.01" y1="37.36" x2="44.64" y2="37.36" style="fill:none;stroke:#1d1d1b;stroke-miterlimit:10"/><line x1="15.01" y1="65.59" x2="44.64" y2="65.59" style="fill:none;stroke:#1d1d1b;stroke-miterlimit:10"/><circle cx="10.43" cy="51.55" r="0.18" style="fill:none;stroke:#1d1d1b;stroke-miterlimit:10"/><circle cx="10.43" cy="56.41" r="0.18" style="fill:none;stroke:#1d1d1b;stroke-miterlimit:10"/><circle cx="10.43" cy="46.69" r="0.18" style="fill:none;stroke:#1d1d1b;stroke-miterlimit:10"/><text x="-4.75" y="5.17"/><text transform="translate(8.05 20.85)" style="font-size:5px;fill:#1d1d1b;font-family:MyriadPro-Regular, Myriad Pro">x</text><text transform="translate(8.6 38.47)" style="font-size:5px;fill:#1d1d1b;font-family:MyriadPro-Regular, Myriad Pro">x</text><text transform="translate(8.6 67.47)" style="font-size:5px;fill:#1d1d1b;font-family:MyriadPro-Regular, Myriad Pro">x</text><text transform="translate(10.9 21.81)" style="font-size:3px;fill:#1d1d1b;font-family:MyriadPro-Regular, Myriad Pro">1</text><text transform="translate(10.9 39.43)" style="font-size:3px;fill:#1d1d1b;font-family:MyriadPro-Regular, Myriad Pro">2</text><text transform="translate(10.9 68.43)" style="font-size:3px;fill:#1d1d1b;font-family:MyriadPro-Regular, Myriad Pro">n</text><line x1="44.64" y1="20.04" x2="64.98" y2="46.87" style="fill:none;stroke:#1d1d1b;stroke-miterlimit:10"/><line x1="44.76" y1="37.5" x2="64.98" y2="46.87" style="fill:none;stroke:#1d1d1b;stroke-miterlimit:10"/><line x1="44.64" y1="65.59" x2="64.98" y2="46.87" style="fill:none;stroke:#1d1d1b;stroke-miterlimit:10"/><rect x="64.98" y="37.5" width="18.75" height="18.75" style="fill:none;stroke:#1d1d1b;stroke-miterlimit:10"/><line x1="69.72" y1="42.48" x2="78.99" y2="42.48" style="fill:none;stroke:#1d1d1b;stroke-miterlimit:10"/><line x1="74.35" y1="46.51" x2="69.72" y2="42.48" style="fill:none;stroke:#1d1d1b;stroke-miterlimit:10"/><line x1="69.72" y1="51.26" x2="74.35" y2="46.51" style="fill:none;stroke:#1d1d1b;stroke-miterlimit:10"/><line x1="78.99" y1="51.26" x2="69.72" y2="51.26" style="fill:none;stroke:#1d1d1b;stroke-miterlimit:10"/><line x1="84.17" y1="46.65" x2="105.32" y2="46.87" style="fill:none;stroke:#1d1d1b;stroke-miterlimit:10"/><rect x="105.77" y="37.14" width="18.75" height="18.75" style="fill:none;stroke:#1d1d1b;stroke-miterlimit:10"/><line x1="118.49" y1="42.48" x2="115.14" y2="42.48" style="fill:none;stroke:#1d1d1b;stroke-miterlimit:10"/><line x1="115.14" y1="51.26" x2="115.14" y2="42.48" style="fill:none;stroke:#1d1d1b;stroke-miterlimit:10"/><line x1="115.14" y1="51.26" x2="111.79" y2="51.26" style="fill:none;stroke:#1d1d1b;stroke-miterlimit:10"/><line x1="125.08" y1="46.69" x2="137.03" y2="46.87" style="fill:none;stroke:#1d1d1b;stroke-miterlimit:10"/><text transform="translate(147 48.51)" style="font-size:10px;fill:#1d1d1b;font-family:MyriadPro-Regular, Myriad Pro">y</text><text transform="translate(1.24 88.98)" style="font-size:5px;fill:#1d1d1b;font-family:MyriadPro-Regular, Myriad Pro">E<tspan x="2.46" y="0" style="letter-spacing:-0.00400390625em">n</tspan><tspan x="5.21" y="0" style="letter-spacing:0.00009765625em">t</tspan><tspan x="6.87" y="0" style="letter-spacing:-0.00498046875em">r</tspan><tspan x="8.48" y="0" style="letter-spacing:-0.00009765625em">adas</tspan></text><text transform="translate(30.04 18.43)" style="font-size:6px;fill:#1d1d1b;font-family:MyriadPro-Regular, Myriad Pro">w</text><text transform="translate(30.21 35.5)" style="font-size:6px;fill:#1d1d1b;font-family:MyriadPro-Regular, Myriad Pro">w</text><text transform="translate(31.15 63.92)" style="font-size:6px;fill:#1d1d1b;font-family:MyriadPro-Regular, Myriad Pro">w</text><text transform="translate(34.26 18.82)" style="font-size:3px;fill:#1d1d1b;font-family:MyriadPro-Regular, Myriad Pro">1</text><text transform="translate(34.54 35.81)" style="font-size:3px;fill:#1d1d1b;font-family:MyriadPro-Regular, Myriad Pro">2</text><text transform="translate(35.26 64.32)" style="font-size:3px;fill:#1d1d1b;font-family:MyriadPro-Regular, Myriad Pro">n</text><text transform="translate(27.75 89.04)" style="font-size:5px;fill:#1d1d1b;font-family:MyriadPro-Regular, Myriad Pro"><tspan style="letter-spacing:-0.025em">P</tspan><tspan x="2.54" y="0">esos</tspan></text><text transform="translate(60.84 88.98)" style="font-size:5px;fill:#1d1d1b;font-family:MyriadPro-Regular, Myriad Pro"><tspan style="letter-spacing:-0.025em">P</tspan><tspan x="2.54" y="0" style="letter-spacing:-0.00009765625em">onde</tspan><tspan x="13.38" y="0" style="letter-spacing:-0.00498046875em">r</tspan><tspan x="14.99" y="0">ación</tspan></text><text transform="translate(93.54 88.31)" style="font-size:5px;fill:#1d1d1b;font-family:MyriadPro-Regular, Myriad Pro"><tspan style="letter-spacing:-0.0349609375em">F</tspan><tspan x="2.26" y="0">unción de a</tspan><tspan x="26.58" y="0" style="letter-spacing:0.012890625em">c</tspan><tspan x="28.88" y="0" style="letter-spacing:-0.0001953125em">ti</tspan><tspan x="31.7" y="0" style="letter-spacing:-0.00390625em">v</tspan><tspan x="34.09" y="0" style="letter-spacing:-0.0001953125em">ación</tspan></text><text transform="translate(144.44 88.31)" style="font-size:5px;fill:#1d1d1b;font-family:MyriadPro-Regular, Myriad Pro"><tspan style="letter-spacing:0.0029296875em">S</tspan><tspan x="2.48" y="0">alida</tspan></text><rect x="0.25" y="11.14" width="19.8" height="65.37" style="fill:none;stroke:#e30613;stroke-miterlimit:10;stroke-width:0.5px"/><rect x="23.22" y="11.14" width="21.42" height="65.37" style="fill:none;stroke:#e30613;stroke-miterlimit:10;stroke-width:0.5px"/><rect x="59.01" y="11.14" width="31.11" height="65.37" style="fill:none;stroke:#e30613;stroke-miterlimit:10;stroke-width:0.5px"/><rect x="102.15" y="11.14" width="26.46" height="65.37" style="fill:none;stroke:#e30613;stroke-miterlimit:10;stroke-width:0.5px"/><rect x="140.45" y="11.14" width="19.02" height="65.37" style="fill:none;stroke:#e30613;stroke-miterlimit:10;stroke-width:0.5px"/><line x1="137.03" y1="46.87" x2="134.59" y2="45.19" style="fill:none;stroke:#1d1d1b;stroke-miterlimit:10"/><line x1="137.02" y1="46.86" x2="134.59" y2="48.56" style="fill:none;stroke:#1d1d1b;stroke-miterlimit:10"/></svg>